<?xml version="1.0" encoding="utf-8" standalone="no"?>
<!DOCTYPE svg PUBLIC "-//W3C//DTD SVG 1.1//EN"
  "http://www.w3.org/Graphics/SVG/1.1/DTD/svg11.dtd">
<svg xmlns:xlink="http://www.w3.org/1999/xlink" width="547.2pt" height="331.2pt" viewBox="0 0 547.2 331.2" xmlns="http://www.w3.org/2000/svg" version="1.1">
 <metadata>
  <rdf:RDF xmlns:dc="http://purl.org/dc/elements/1.1/" xmlns:cc="http://creativecommons.org/ns#" xmlns:rdf="http://www.w3.org/1999/02/22-rdf-syntax-ns#">
   <cc:Work>
    <dc:type rdf:resource="http://purl.org/dc/dcmitype/StillImage"/>
    <dc:date>2026-09-09T00:24:21.346008</dc:date>
    <dc:format>image/svg+xml</dc:format>
    <dc:creator>
     <cc:Agent>
      <dc:title>Matplotlib v3.11.0, https://matplotlib.org/</dc:title>
     </cc:Agent>
    </dc:creator>
   </cc:Work>
  </rdf:RDF>
 </metadata>
 <defs>
  <style type="text/css">*{stroke-linejoin: round; stroke-linecap: butt}</style>
 </defs>
 <g id="figure_1">
  <g id="patch_1">
   <path d="M 0 331.2 
L 547.2 331.2 
L 547.2 0 
L 0 0 
z
" style="fill: #ffffff"/>
  </g>
  <g id="axes_1">
   <g id="patch_2">
    <path d="M 43.271334 291.198666 
L 532.74726 291.198666 
L 532.74726 50.702349 
L 43.271334 50.702349 
z
" style="fill: #ffffff"/>
   </g>
   <g id="matplotlib.axis_1">
    <g id="xtick_1">
     <g id="line2d_1">
      <defs>
       <path id="m740d06cb9c" d="M 0 0 
L 0 3.5 
" style="stroke: #000000; stroke-width: 0.8"/>
      </defs>
      <g>
       <use xlink:href="#m740d06cb9c" x="43.271334" y="291.198666" style="stroke: #000000; stroke-width: 0.8"/>
      </g>
     </g>
     <g id="text_1">
      <text style="font-size: 12px; font-family: 'DejaVu Sans'; text-anchor: middle" x="43.271334" y="307.315854" transform="rotate(-0 43.271334 307.315854)">75</text>
     </g>
    </g>
    <g id="xtick_2">
     <g id="line2d_2">
      <g>
       <use xlink:href="#m740d06cb9c" x="104.455825" y="291.198666" style="stroke: #000000; stroke-width: 0.8"/>
      </g>
     </g>
     <g id="text_2">
      <text style="font-size: 12px; font-family: 'DejaVu Sans'; text-anchor: middle" x="104.455825" y="307.315854" transform="rotate(-0 104.455825 307.315854)">100</text>
     </g>
    </g>
    <g id="xtick_3">
     <g id="line2d_3">
      <g>
       <use xlink:href="#m740d06cb9c" x="165.640315" y="291.198666" style="stroke: #000000; stroke-width: 0.8"/>
      </g>
     </g>
     <g id="text_3">
      <text style="font-size: 12px; font-family: 'DejaVu Sans'; text-anchor: middle" x="165.640315" y="307.315854" transform="rotate(-0 165.640315 307.315854)">125</text>
     </g>
    </g>
    <g id="xtick_4">
     <g id="line2d_4">
      <g>
       <use xlink:href="#m740d06cb9c" x="226.824806" y="291.198666" style="stroke: #000000; stroke-width: 0.8"/>
      </g>
     </g>
     <g id="text_4">
      <text style="font-size: 12px; font-family: 'DejaVu Sans'; text-anchor: middle" x="226.824806" y="307.315854" transform="rotate(-0 226.824806 307.315854)">150</text>
     </g>
    </g>
    <g id="xtick_5">
     <g id="line2d_5">
      <g>
       <use xlink:href="#m740d06cb9c" x="288.009297" y="291.198666" style="stroke: #000000; stroke-width: 0.8"/>
      </g>
     </g>
     <g id="text_5">
      <text style="font-size: 12px; font-family: 'DejaVu Sans'; text-anchor: middle" x="288.009297" y="307.315854" transform="rotate(-0 288.009297 307.315854)">175</text>
     </g>
    </g>
    <g id="xtick_6">
     <g id="line2d_6">
      <g>
       <use xlink:href="#m740d06cb9c" x="349.193788" y="291.198666" style="stroke: #000000; stroke-width: 0.8"/>
      </g>
     </g>
     <g id="text_6">
      <text style="font-size: 12px; font-family: 'DejaVu Sans'; text-anchor: middle" x="349.193788" y="307.315854" transform="rotate(-0 349.193788 307.315854)">200</text>
     </g>
    </g>
    <g id="xtick_7">
     <g id="line2d_7">
      <g>
       <use xlink:href="#m740d06cb9c" x="410.378278" y="291.198666" style="stroke: #000000; stroke-width: 0.8"/>
      </g>
     </g>
     <g id="text_7">
      <text style="font-size: 12px; font-family: 'DejaVu Sans'; text-anchor: middle" x="410.378278" y="307.315854" transform="rotate(-0 410.378278 307.315854)">225</text>
     </g>
    </g>
    <g id="xtick_8">
     <g id="line2d_8">
      <g>
       <use xlink:href="#m740d06cb9c" x="471.562769" y="291.198666" style="stroke: #000000; stroke-width: 0.8"/>
      </g>
     </g>
     <g id="text_8">
      <text style="font-size: 12px; font-family: 'DejaVu Sans'; text-anchor: middle" x="471.562769" y="307.315854" transform="rotate(-0 471.562769 307.315854)">250</text>
     </g>
    </g>
    <g id="xtick_9">
     <g id="line2d_9">
      <g>
       <use xlink:href="#m740d06cb9c" x="532.74726" y="291.198666" style="stroke: #000000; stroke-width: 0.8"/>
      </g>
     </g>
     <g id="text_9">
      <text style="font-size: 12px; font-family: 'DejaVu Sans'; text-anchor: middle" x="532.74726" y="307.315854" transform="rotate(-0 532.74726 307.315854)">275</text>
     </g>
    </g>
    <g id="text_10">
     <text style="font-size: 14px; font-family: 'DejaVu Sans'; text-anchor: middle" x="288.009297" y="324.836479" transform="rotate(-0 288.009297 324.836479)">Checkpoint optimizer updates</text>
    </g>
   </g>
   <g id="matplotlib.axis_2">
    <g id="ytick_1">
     <g id="line2d_10">
      <path d="M 43.271334 287.806085 
L 532.74726 287.806085 
" clip-path="url(#pe77388cb7a)" style="fill: none; stroke: #e4e8eb; stroke-width: 0.7; stroke-linecap: square"/>
     </g>
     <g id="line2d_11">
      <defs>
       <path id="m6cb9bc7b97" d="M 0 0 
L -3.5 0 
" style="stroke: #000000; stroke-width: 0.8"/>
      </defs>
      <g>
       <use xlink:href="#m6cb9bc7b97" x="43.271334" y="287.806085" style="stroke: #000000; stroke-width: 0.8"/>
      </g>
     </g>
     <g id="text_11">
      <text style="font-size: 12px; font-family: 'DejaVu Sans'; text-anchor: end" x="36.271334" y="292.364679" transform="rotate(-0 36.271334 292.364679)">0</text>
     </g>
    </g>
    <g id="ytick_2">
     <g id="line2d_12">
      <path d="M 43.271334 239.55604 
L 532.74726 239.55604 
" clip-path="url(#pe77388cb7a)" style="fill: none; stroke: #e4e8eb; stroke-width: 0.7; stroke-linecap: square"/>
     </g>
     <g id="line2d_13">
      <g>
       <use xlink:href="#m6cb9bc7b97" x="43.271334" y="239.55604" style="stroke: #000000; stroke-width: 0.8"/>
      </g>
     </g>
     <g id="text_12">
      <text style="font-size: 12px; font-family: 'DejaVu Sans'; text-anchor: end" x="36.271334" y="244.114634" transform="rotate(-0 36.271334 244.114634)">5</text>
     </g>
    </g>
    <g id="ytick_3">
     <g id="line2d_14">
      <path d="M 43.271334 191.305995 
L 532.74726 191.305995 
" clip-path="url(#pe77388cb7a)" style="fill: none; stroke: #e4e8eb; stroke-width: 0.7; stroke-linecap: square"/>
     </g>
     <g id="line2d_15">
      <g>
       <use xlink:href="#m6cb9bc7b97" x="43.271334" y="191.305995" style="stroke: #000000; stroke-width: 0.8"/>
      </g>
     </g>
     <g id="text_13">
      <text style="font-size: 12px; font-family: 'DejaVu Sans'; text-anchor: end" x="36.271334" y="195.864589" transform="rotate(-0 36.271334 195.864589)">10</text>
     </g>
    </g>
    <g id="ytick_4">
     <g id="line2d_16">
      <path d="M 43.271334 143.055951 
L 532.74726 143.055951 
" clip-path="url(#pe77388cb7a)" style="fill: none; stroke: #e4e8eb; stroke-width: 0.7; stroke-linecap: square"/>
     </g>
     <g id="line2d_17">
      <g>
       <use xlink:href="#m6cb9bc7b97" x="43.271334" y="143.055951" style="stroke: #000000; stroke-width: 0.8"/>
      </g>
     </g>
     <g id="text_14">
      <text style="font-size: 12px; font-family: 'DejaVu Sans'; text-anchor: end" x="36.271334" y="147.614544" transform="rotate(-0 36.271334 147.614544)">15</text>
     </g>
    </g>
    <g id="ytick_5">
     <g id="line2d_18">
      <path d="M 43.271334 94.805906 
L 532.74726 94.805906 
" clip-path="url(#pe77388cb7a)" style="fill: none; stroke: #e4e8eb; stroke-width: 0.7; stroke-linecap: square"/>
     </g>
     <g id="line2d_19">
      <g>
       <use xlink:href="#m6cb9bc7b97" x="43.271334" y="94.805906" style="stroke: #000000; stroke-width: 0.8"/>
      </g>
     </g>
     <g id="text_15">
      <text style="font-size: 12px; font-family: 'DejaVu Sans'; text-anchor: end" x="36.271334" y="99.3645" transform="rotate(-0 36.271334 99.3645)">20</text>
     </g>
    </g>
    <g id="text_16">
     <text style="font-size: 14px; font-family: 'DejaVu Sans'; text-anchor: middle" x="13.638053" y="170.950508" transform="rotate(-90 13.638053 170.950508)">LiveCodeBench pass@1 (%)</text>
    </g>
   </g>
   <g id="line2d_20">
    <path d="M 104.455825 272.727946 
L 471.562769 227.493529 
" clip-path="url(#pe77388cb7a)" style="fill: none; stroke-dasharray: 6.66,2.88; stroke-dashoffset: 0; stroke: #27699c; stroke-width: 1.8"/>
    <defs>
     <path id="m01c42d052e" d="M 0 3 
C 0.795609 3 1.55874 2.683901 2.12132 2.12132 
C 2.683901 1.55874 3 0.795609 3 0 
C 3 -0.795609 2.683901 -1.55874 2.12132 -2.12132 
C 1.55874 -2.683901 0.795609 -3 0 -3 
C -0.795609 -3 -1.55874 -2.683901 -2.12132 -2.12132 
C -2.683901 -1.55874 -3 -0.795609 -3 0 
C -3 0.795609 -2.683901 1.55874 -2.12132 2.12132 
C -1.55874 2.683901 -0.795609 3 0 3 
z
" style="stroke: #27699c"/>
    </defs>
    <g clip-path="url(#pe77388cb7a)">
     <use xlink:href="#m01c42d052e" x="104.455825" y="272.727946" style="fill: #27699c; stroke: #27699c"/>
     <use xlink:href="#m01c42d052e" x="471.562769" y="227.493529" style="fill: #27699c; stroke: #27699c"/>
    </g>
   </g>
   <g id="line2d_21">
    <path d="M 104.455825 197.337251 
L 471.562769 182.259112 
" clip-path="url(#pe77388cb7a)" style="fill: none; stroke-dasharray: 6.66,2.88; stroke-dashoffset: 0; stroke: #c05d28; stroke-width: 1.8"/>
    <defs>
     <path id="m3852fc1c78" d="M 0 3 
C 0.795609 3 1.55874 2.683901 2.12132 2.12132 
C 2.683901 1.55874 3 0.795609 3 0 
C 3 -0.795609 2.683901 -1.55874 2.12132 -2.12132 
C 1.55874 -2.683901 0.795609 -3 0 -3 
C -0.795609 -3 -1.55874 -2.683901 -2.12132 -2.12132 
C -2.683901 -1.55874 -3 -0.795609 -3 0 
C -3 0.795609 -2.683901 1.55874 -2.12132 2.12132 
C -1.55874 2.683901 -0.795609 3 0 3 
z
" style="stroke: #c05d28"/>
    </defs>
    <g clip-path="url(#pe77388cb7a)">
     <use xlink:href="#m3852fc1c78" x="104.455825" y="197.337251" style="fill: #c05d28; stroke: #c05d28"/>
     <use xlink:href="#m3852fc1c78" x="471.562769" y="182.259112" style="fill: #c05d28; stroke: #c05d28"/>
    </g>
   </g>
   <g id="line2d_22">
    <path d="M 104.455825 257.649807 
L 471.562769 212.41539 
" clip-path="url(#pe77388cb7a)" style="fill: none; stroke-dasharray: 6.66,2.88; stroke-dashoffset: 0; stroke: #268574; stroke-width: 1.8"/>
    <defs>
     <path id="mee7e96b63c" d="M 0 3 
C 0.795609 3 1.55874 2.683901 2.12132 2.12132 
C 2.683901 1.55874 3 0.795609 3 0 
C 3 -0.795609 2.683901 -1.55874 2.12132 -2.12132 
C 1.55874 -2.683901 0.795609 -3 0 -3 
C -0.795609 -3 -1.55874 -2.683901 -2.12132 -2.12132 
C -2.683901 -1.55874 -3 -0.795609 -3 0 
C -3 0.795609 -2.683901 1.55874 -2.12132 2.12132 
C -1.55874 2.683901 -0.795609 3 0 3 
z
" style="stroke: #268574"/>
    </defs>
    <g clip-path="url(#pe77388cb7a)">
     <use xlink:href="#mee7e96b63c" x="104.455825" y="257.649807" style="fill: #268574; stroke: #268574"/>
     <use xlink:href="#mee7e96b63c" x="471.562769" y="212.41539" style="fill: #268574; stroke: #268574"/>
    </g>
   </g>
   <g id="line2d_23">
    <path d="M 43.271334 280.267015 
L 532.74726 280.267015 
" clip-path="url(#pe77388cb7a)" style="fill: none; stroke-dasharray: 1.5,2.475; stroke-dashoffset: 0; stroke: #888888; stroke-width: 1.5"/>
   </g>
   <g id="line2d_24">
    <path d="M 43.271334 61.634 
L 532.74726 61.634 
" clip-path="url(#pe77388cb7a)" style="fill: none; stroke-dasharray: 5.55,2.4; stroke-dashoffset: 0; stroke: #333333; stroke-width: 1.5"/>
   </g>
   <g id="patch_3">
    <path d="M 43.271334 291.198666 
L 43.271334 50.702349 
" style="fill: none; stroke: #000000; stroke-width: 0.8; stroke-linejoin: miter; stroke-linecap: square"/>
   </g>
   <g id="patch_4">
    <path d="M 43.271334 291.198666 
L 532.74726 291.198666 
" style="fill: none; stroke: #000000; stroke-width: 0.8; stroke-linejoin: miter; stroke-linecap: square"/>
   </g>
   <g id="legend_1">
    <g id="line2d_25">
     <path d="M 51.371334 10.288834 
L 60.371334 10.288834 
L 69.371334 10.288834 
" style="fill: none; stroke-dasharray: 6.66,2.88; stroke-dashoffset: 0; stroke: #27699c; stroke-width: 1.8"/>
     <g>
      <use xlink:href="#m01c42d052e" x="60.371334" y="10.288834" style="fill: #27699c; stroke: #27699c"/>
     </g>
    </g>
    <g id="text_17">
     <text style="font-size: 9px; font-family: 'DejaVu Sans'; text-anchor: start" x="76.571334" y="13.438834" transform="rotate(-0 76.571334 13.438834)">Student64 → I64 · DR</text>
    </g>
    <g id="line2d_26">
     <path d="M 51.371334 23.789537 
L 60.371334 23.789537 
L 69.371334 23.789537 
" style="fill: none; stroke-dasharray: 6.66,2.88; stroke-dashoffset: 0; stroke: #c05d28; stroke-width: 1.8"/>
     <g>
      <use xlink:href="#m3852fc1c78" x="60.371334" y="23.789537" style="fill: #c05d28; stroke: #c05d28"/>
     </g>
    </g>
    <g id="text_18">
     <text style="font-size: 9px; font-family: 'DejaVu Sans'; text-anchor: start" x="76.571334" y="26.939537" transform="rotate(-0 76.571334 26.939537)">Student64 → I64 · DT</text>
    </g>
    <g id="line2d_27">
     <path d="M 51.371334 37.29024 
L 60.371334 37.29024 
L 69.371334 37.29024 
" style="fill: none; stroke-dasharray: 6.66,2.88; stroke-dashoffset: 0; stroke: #268574; stroke-width: 1.8"/>
     <g>
      <use xlink:href="#mee7e96b63c" x="60.371334" y="37.29024" style="fill: #268574; stroke: #268574"/>
     </g>
    </g>
    <g id="text_19">
     <text style="font-size: 9px; font-family: 'DejaVu Sans'; text-anchor: start" x="76.571334" y="40.44024" transform="rotate(-0 76.571334 40.44024)">Student64 → I64 · GT</text>
    </g>
    <g id="line2d_28">
     <path d="M 190.587271 10.288834 
L 199.587271 10.288834 
L 208.587271 10.288834 
" style="fill: none; stroke-dasharray: 1.5,2.475; stroke-dashoffset: 0; stroke: #888888; stroke-width: 1.5"/>
    </g>
    <g id="text_20">
     <text style="font-size: 9px; font-family: 'DejaVu Sans'; text-anchor: start" x="215.787271" y="13.438834" transform="rotate(-0 215.787271 13.438834)">Initial student</text>
    </g>
    <g id="line2d_29">
     <path d="M 190.587271 23.789537 
L 199.587271 23.789537 
L 208.587271 23.789537 
" style="fill: none; stroke-dasharray: 5.55,2.4; stroke-dashoffset: 0; stroke: #333333; stroke-width: 1.5"/>
    </g>
    <g id="text_21">
     <text style="font-size: 9px; font-family: 'DejaVu Sans'; text-anchor: start" x="215.787271" y="26.939537" transform="rotate(-0 215.787271 26.939537)">Domain teacher</text>
    </g>
   </g>
  </g>
 </g>
 <defs>
  <clipPath id="pe77388cb7a">
   <rect x="43.271334" y="50.702349" width="489.475926" height="240.496317"/>
  </clipPath>
 </defs>
</svg>
