<?xml version="1.0" encoding="utf-8" standalone="no"?>
<!DOCTYPE svg PUBLIC "-//W3C//DTD SVG 1.1//EN"
  "http://www.w3.org/Graphics/SVG/1.1/DTD/svg11.dtd">
<svg xmlns:xlink="http://www.w3.org/1999/xlink" width="547.2pt" height="331.2pt" viewBox="0 0 547.2 331.2" xmlns="http://www.w3.org/2000/svg" version="1.1">
 <metadata>
  <rdf:RDF xmlns:dc="http://purl.org/dc/elements/1.1/" xmlns:cc="http://creativecommons.org/ns#" xmlns:rdf="http://www.w3.org/1999/02/22-rdf-syntax-ns#">
   <cc:Work>
    <dc:type rdf:resource="http://purl.org/dc/dcmitype/StillImage"/>
    <dc:date>2026-09-09T00:24:20.553055</dc:date>
    <dc:format>image/svg+xml</dc:format>
    <dc:creator>
     <cc:Agent>
      <dc:title>Matplotlib v3.11.0, https://matplotlib.org/</dc:title>
     </cc:Agent>
    </dc:creator>
   </cc:Work>
  </rdf:RDF>
 </metadata>
 <defs>
  <style type="text/css">*{stroke-linejoin: round; stroke-linecap: butt}</style>
 </defs>
 <g id="figure_1">
  <g id="patch_1">
   <path d="M 0 331.2 
L 547.2 331.2 
L 547.2 0 
L 0 0 
z
" style="fill: #ffffff"/>
  </g>
  <g id="axes_1">
   <g id="patch_2">
    <path d="M 54.71899 291.198666 
L 532.74726 291.198666 
L 532.74726 50.702349 
L 54.71899 50.702349 
z
" style="fill: #ffffff"/>
   </g>
   <g id="matplotlib.axis_1">
    <g id="xtick_1">
     <g id="line2d_1">
      <defs>
       <path id="mafd59d3012" d="M 0 0 
L 0 3.5 
" style="stroke: #000000; stroke-width: 0.8"/>
      </defs>
      <g>
       <use xlink:href="#mafd59d3012" x="54.71899" y="291.198666" style="stroke: #000000; stroke-width: 0.8"/>
      </g>
     </g>
     <g id="text_1">
      <text style="font-size: 12px; font-family: 'DejaVu Sans'; text-anchor: middle" x="54.71899" y="307.315854" transform="rotate(-0 54.71899 307.315854)">75</text>
     </g>
    </g>
    <g id="xtick_2">
     <g id="line2d_2">
      <g>
       <use xlink:href="#mafd59d3012" x="114.472524" y="291.198666" style="stroke: #000000; stroke-width: 0.8"/>
      </g>
     </g>
     <g id="text_2">
      <text style="font-size: 12px; font-family: 'DejaVu Sans'; text-anchor: middle" x="114.472524" y="307.315854" transform="rotate(-0 114.472524 307.315854)">100</text>
     </g>
    </g>
    <g id="xtick_3">
     <g id="line2d_3">
      <g>
       <use xlink:href="#mafd59d3012" x="174.226057" y="291.198666" style="stroke: #000000; stroke-width: 0.8"/>
      </g>
     </g>
     <g id="text_3">
      <text style="font-size: 12px; font-family: 'DejaVu Sans'; text-anchor: middle" x="174.226057" y="307.315854" transform="rotate(-0 174.226057 307.315854)">125</text>
     </g>
    </g>
    <g id="xtick_4">
     <g id="line2d_4">
      <g>
       <use xlink:href="#mafd59d3012" x="233.979591" y="291.198666" style="stroke: #000000; stroke-width: 0.8"/>
      </g>
     </g>
     <g id="text_4">
      <text style="font-size: 12px; font-family: 'DejaVu Sans'; text-anchor: middle" x="233.979591" y="307.315854" transform="rotate(-0 233.979591 307.315854)">150</text>
     </g>
    </g>
    <g id="xtick_5">
     <g id="line2d_5">
      <g>
       <use xlink:href="#mafd59d3012" x="293.733125" y="291.198666" style="stroke: #000000; stroke-width: 0.8"/>
      </g>
     </g>
     <g id="text_5">
      <text style="font-size: 12px; font-family: 'DejaVu Sans'; text-anchor: middle" x="293.733125" y="307.315854" transform="rotate(-0 293.733125 307.315854)">175</text>
     </g>
    </g>
    <g id="xtick_6">
     <g id="line2d_6">
      <g>
       <use xlink:href="#mafd59d3012" x="353.486659" y="291.198666" style="stroke: #000000; stroke-width: 0.8"/>
      </g>
     </g>
     <g id="text_6">
      <text style="font-size: 12px; font-family: 'DejaVu Sans'; text-anchor: middle" x="353.486659" y="307.315854" transform="rotate(-0 353.486659 307.315854)">200</text>
     </g>
    </g>
    <g id="xtick_7">
     <g id="line2d_7">
      <g>
       <use xlink:href="#mafd59d3012" x="413.240192" y="291.198666" style="stroke: #000000; stroke-width: 0.8"/>
      </g>
     </g>
     <g id="text_7">
      <text style="font-size: 12px; font-family: 'DejaVu Sans'; text-anchor: middle" x="413.240192" y="307.315854" transform="rotate(-0 413.240192 307.315854)">225</text>
     </g>
    </g>
    <g id="xtick_8">
     <g id="line2d_8">
      <g>
       <use xlink:href="#mafd59d3012" x="472.993726" y="291.198666" style="stroke: #000000; stroke-width: 0.8"/>
      </g>
     </g>
     <g id="text_8">
      <text style="font-size: 12px; font-family: 'DejaVu Sans'; text-anchor: middle" x="472.993726" y="307.315854" transform="rotate(-0 472.993726 307.315854)">250</text>
     </g>
    </g>
    <g id="xtick_9">
     <g id="line2d_9">
      <g>
       <use xlink:href="#mafd59d3012" x="532.74726" y="291.198666" style="stroke: #000000; stroke-width: 0.8"/>
      </g>
     </g>
     <g id="text_9">
      <text style="font-size: 12px; font-family: 'DejaVu Sans'; text-anchor: middle" x="532.74726" y="307.315854" transform="rotate(-0 532.74726 307.315854)">275</text>
     </g>
    </g>
    <g id="text_10">
     <text style="font-size: 14px; font-family: 'DejaVu Sans'; text-anchor: middle" x="293.733125" y="324.836479" transform="rotate(-0 293.733125 324.836479)">Checkpoint optimizer updates</text>
    </g>
   </g>
   <g id="matplotlib.axis_2">
    <g id="ytick_1">
     <g id="line2d_10">
      <path d="M 54.71899 286.826006 
L 532.74726 286.826006 
" clip-path="url(#p33ebeacbbc)" style="fill: none; stroke: #e4e8eb; stroke-width: 0.7; stroke-linecap: square"/>
     </g>
     <g id="line2d_11">
      <defs>
       <path id="mc75692d491" d="M 0 0 
L -3.5 0 
" style="stroke: #000000; stroke-width: 0.8"/>
      </defs>
      <g>
       <use xlink:href="#mc75692d491" x="54.71899" y="286.826006" style="stroke: #000000; stroke-width: 0.8"/>
      </g>
     </g>
     <g id="text_11">
      <text style="font-size: 12px; font-family: 'DejaVu Sans'; text-anchor: end" x="47.71899" y="291.3846" transform="rotate(-0 47.71899 291.3846)">55.0</text>
     </g>
    </g>
    <g id="ytick_2">
     <g id="line2d_12">
      <path d="M 54.71899 259.496879 
L 532.74726 259.496879 
" clip-path="url(#p33ebeacbbc)" style="fill: none; stroke: #e4e8eb; stroke-width: 0.7; stroke-linecap: square"/>
     </g>
     <g id="line2d_13">
      <g>
       <use xlink:href="#mc75692d491" x="54.71899" y="259.496879" style="stroke: #000000; stroke-width: 0.8"/>
      </g>
     </g>
     <g id="text_12">
      <text style="font-size: 12px; font-family: 'DejaVu Sans'; text-anchor: end" x="47.71899" y="264.055473" transform="rotate(-0 47.71899 264.055473)">57.5</text>
     </g>
    </g>
    <g id="ytick_3">
     <g id="line2d_14">
      <path d="M 54.71899 232.167752 
L 532.74726 232.167752 
" clip-path="url(#p33ebeacbbc)" style="fill: none; stroke: #e4e8eb; stroke-width: 0.7; stroke-linecap: square"/>
     </g>
     <g id="line2d_15">
      <g>
       <use xlink:href="#mc75692d491" x="54.71899" y="232.167752" style="stroke: #000000; stroke-width: 0.8"/>
      </g>
     </g>
     <g id="text_13">
      <text style="font-size: 12px; font-family: 'DejaVu Sans'; text-anchor: end" x="47.71899" y="236.726346" transform="rotate(-0 47.71899 236.726346)">60.0</text>
     </g>
    </g>
    <g id="ytick_4">
     <g id="line2d_16">
      <path d="M 54.71899 204.838625 
L 532.74726 204.838625 
" clip-path="url(#p33ebeacbbc)" style="fill: none; stroke: #e4e8eb; stroke-width: 0.7; stroke-linecap: square"/>
     </g>
     <g id="line2d_17">
      <g>
       <use xlink:href="#mc75692d491" x="54.71899" y="204.838625" style="stroke: #000000; stroke-width: 0.8"/>
      </g>
     </g>
     <g id="text_14">
      <text style="font-size: 12px; font-family: 'DejaVu Sans'; text-anchor: end" x="47.71899" y="209.397219" transform="rotate(-0 47.71899 209.397219)">62.5</text>
     </g>
    </g>
    <g id="ytick_5">
     <g id="line2d_18">
      <path d="M 54.71899 177.509498 
L 532.74726 177.509498 
" clip-path="url(#p33ebeacbbc)" style="fill: none; stroke: #e4e8eb; stroke-width: 0.7; stroke-linecap: square"/>
     </g>
     <g id="line2d_19">
      <g>
       <use xlink:href="#mc75692d491" x="54.71899" y="177.509498" style="stroke: #000000; stroke-width: 0.8"/>
      </g>
     </g>
     <g id="text_15">
      <text style="font-size: 12px; font-family: 'DejaVu Sans'; text-anchor: end" x="47.71899" y="182.068092" transform="rotate(-0 47.71899 182.068092)">65.0</text>
     </g>
    </g>
    <g id="ytick_6">
     <g id="line2d_20">
      <path d="M 54.71899 150.180371 
L 532.74726 150.180371 
" clip-path="url(#p33ebeacbbc)" style="fill: none; stroke: #e4e8eb; stroke-width: 0.7; stroke-linecap: square"/>
     </g>
     <g id="line2d_21">
      <g>
       <use xlink:href="#mc75692d491" x="54.71899" y="150.180371" style="stroke: #000000; stroke-width: 0.8"/>
      </g>
     </g>
     <g id="text_16">
      <text style="font-size: 12px; font-family: 'DejaVu Sans'; text-anchor: end" x="47.71899" y="154.738965" transform="rotate(-0 47.71899 154.738965)">67.5</text>
     </g>
    </g>
    <g id="ytick_7">
     <g id="line2d_22">
      <path d="M 54.71899 122.851244 
L 532.74726 122.851244 
" clip-path="url(#p33ebeacbbc)" style="fill: none; stroke: #e4e8eb; stroke-width: 0.7; stroke-linecap: square"/>
     </g>
     <g id="line2d_23">
      <g>
       <use xlink:href="#mc75692d491" x="54.71899" y="122.851244" style="stroke: #000000; stroke-width: 0.8"/>
      </g>
     </g>
     <g id="text_17">
      <text style="font-size: 12px; font-family: 'DejaVu Sans'; text-anchor: end" x="47.71899" y="127.409838" transform="rotate(-0 47.71899 127.409838)">70.0</text>
     </g>
    </g>
    <g id="ytick_8">
     <g id="line2d_24">
      <path d="M 54.71899 95.522118 
L 532.74726 95.522118 
" clip-path="url(#p33ebeacbbc)" style="fill: none; stroke: #e4e8eb; stroke-width: 0.7; stroke-linecap: square"/>
     </g>
     <g id="line2d_25">
      <g>
       <use xlink:href="#mc75692d491" x="54.71899" y="95.522118" style="stroke: #000000; stroke-width: 0.8"/>
      </g>
     </g>
     <g id="text_18">
      <text style="font-size: 12px; font-family: 'DejaVu Sans'; text-anchor: end" x="47.71899" y="100.080711" transform="rotate(-0 47.71899 100.080711)">72.5</text>
     </g>
    </g>
    <g id="ytick_9">
     <g id="line2d_26">
      <path d="M 54.71899 68.192991 
L 532.74726 68.192991 
" clip-path="url(#p33ebeacbbc)" style="fill: none; stroke: #e4e8eb; stroke-width: 0.7; stroke-linecap: square"/>
     </g>
     <g id="line2d_27">
      <g>
       <use xlink:href="#mc75692d491" x="54.71899" y="68.192991" style="stroke: #000000; stroke-width: 0.8"/>
      </g>
     </g>
     <g id="text_19">
      <text style="font-size: 12px; font-family: 'DejaVu Sans'; text-anchor: end" x="47.71899" y="72.751584" transform="rotate(-0 47.71899 72.751584)">75.0</text>
     </g>
    </g>
    <g id="text_20">
     <text style="font-size: 14px; font-family: 'DejaVu Sans'; text-anchor: middle" x="13.636959" y="170.950508" transform="rotate(-90 13.636959 170.950508)">MATH-500 pass@1 (%)</text>
    </g>
   </g>
   <g id="line2d_28">
    <path d="M 114.472524 264.962704 
" clip-path="url(#p33ebeacbbc)" style="fill: none; stroke-dasharray: 6.66,2.88; stroke-dashoffset: 0; stroke: #27699c; stroke-width: 1.8"/>
    <defs>
     <path id="mb32139b233" d="M 0 3 
C 0.795609 3 1.55874 2.683901 2.12132 2.12132 
C 2.683901 1.55874 3 0.795609 3 0 
C 3 -0.795609 2.683901 -1.55874 2.12132 -2.12132 
C 1.55874 -2.683901 0.795609 -3 0 -3 
C -0.795609 -3 -1.55874 -2.683901 -2.12132 -2.12132 
C -2.683901 -1.55874 -3 -0.795609 -3 0 
C -3 0.795609 -2.683901 1.55874 -2.12132 2.12132 
C -1.55874 2.683901 -0.795609 3 0 3 
z
" style="stroke: #27699c"/>
    </defs>
    <g clip-path="url(#p33ebeacbbc)">
     <use xlink:href="#mb32139b233" x="114.472524" y="264.962704" style="fill: #27699c; stroke: #27699c"/>
    </g>
   </g>
   <g id="line2d_29">
    <path d="M 114.472524 192.813809 
" clip-path="url(#p33ebeacbbc)" style="fill: none; stroke-dasharray: 6.66,2.88; stroke-dashoffset: 0; stroke: #c05d28; stroke-width: 1.8"/>
    <defs>
     <path id="m737a654c85" d="M 0 3 
C 0.795609 3 1.55874 2.683901 2.12132 2.12132 
C 2.683901 1.55874 3 0.795609 3 0 
C 3 -0.795609 2.683901 -1.55874 2.12132 -2.12132 
C 1.55874 -2.683901 0.795609 -3 0 -3 
C -0.795609 -3 -1.55874 -2.683901 -2.12132 -2.12132 
C -2.683901 -1.55874 -3 -0.795609 -3 0 
C -3 0.795609 -2.683901 1.55874 -2.12132 2.12132 
C -1.55874 2.683901 -0.795609 3 0 3 
z
" style="stroke: #c05d28"/>
    </defs>
    <g clip-path="url(#p33ebeacbbc)">
     <use xlink:href="#m737a654c85" x="114.472524" y="192.813809" style="fill: #c05d28; stroke: #c05d28"/>
    </g>
   </g>
   <g id="line2d_30">
    <path d="M 114.472524 177.509498 
" clip-path="url(#p33ebeacbbc)" style="fill: none; stroke-dasharray: 6.66,2.88; stroke-dashoffset: 0; stroke: #268574; stroke-width: 1.8"/>
    <defs>
     <path id="mc6fa13928f" d="M 0 3 
C 0.795609 3 1.55874 2.683901 2.12132 2.12132 
C 2.683901 1.55874 3 0.795609 3 0 
C 3 -0.795609 2.683901 -1.55874 2.12132 -2.12132 
C 1.55874 -2.683901 0.795609 -3 0 -3 
C -0.795609 -3 -1.55874 -2.683901 -2.12132 -2.12132 
C -2.683901 -1.55874 -3 -0.795609 -3 0 
C -3 0.795609 -2.683901 1.55874 -2.12132 2.12132 
C -1.55874 2.683901 -0.795609 3 0 3 
z
" style="stroke: #268574"/>
    </defs>
    <g clip-path="url(#p33ebeacbbc)">
     <use xlink:href="#mc6fa13928f" x="114.472524" y="177.509498" style="fill: #268574; stroke: #268574"/>
    </g>
   </g>
   <g id="line2d_31">
    <path d="M 54.71899 280.267015 
L 532.74726 280.267015 
" clip-path="url(#p33ebeacbbc)" style="fill: none; stroke-dasharray: 1.5,2.475; stroke-dashoffset: 0; stroke: #888888; stroke-width: 1.5"/>
   </g>
   <g id="line2d_32">
    <path d="M 54.71899 61.634 
L 532.74726 61.634 
" clip-path="url(#p33ebeacbbc)" style="fill: none; stroke-dasharray: 5.55,2.4; stroke-dashoffset: 0; stroke: #333333; stroke-width: 1.5"/>
   </g>
   <g id="patch_3">
    <path d="M 54.71899 291.198666 
L 54.71899 50.702349 
" style="fill: none; stroke: #000000; stroke-width: 0.8; stroke-linejoin: miter; stroke-linecap: square"/>
   </g>
   <g id="patch_4">
    <path d="M 54.71899 291.198666 
L 532.74726 291.198666 
" style="fill: none; stroke: #000000; stroke-width: 0.8; stroke-linejoin: miter; stroke-linecap: square"/>
   </g>
   <g id="legend_1">
    <g id="line2d_33">
     <path d="M 62.81899 10.288834 
L 71.81899 10.288834 
L 80.81899 10.288834 
" style="fill: none; stroke-dasharray: 6.66,2.88; stroke-dashoffset: 0; stroke: #27699c; stroke-width: 1.8"/>
     <g>
      <use xlink:href="#mb32139b233" x="71.81899" y="10.288834" style="fill: #27699c; stroke: #27699c"/>
     </g>
    </g>
    <g id="text_21">
     <text style="font-size: 9px; font-family: 'DejaVu Sans'; text-anchor: start" x="88.01899" y="13.438834" transform="rotate(-0 88.01899 13.438834)">Student64 → I64 · DR</text>
    </g>
    <g id="line2d_34">
     <path d="M 62.81899 23.789537 
L 71.81899 23.789537 
L 80.81899 23.789537 
" style="fill: none; stroke-dasharray: 6.66,2.88; stroke-dashoffset: 0; stroke: #c05d28; stroke-width: 1.8"/>
     <g>
      <use xlink:href="#m737a654c85" x="71.81899" y="23.789537" style="fill: #c05d28; stroke: #c05d28"/>
     </g>
    </g>
    <g id="text_22">
     <text style="font-size: 9px; font-family: 'DejaVu Sans'; text-anchor: start" x="88.01899" y="26.939537" transform="rotate(-0 88.01899 26.939537)">Student64 → I64 · DT</text>
    </g>
    <g id="line2d_35">
     <path d="M 62.81899 37.29024 
L 71.81899 37.29024 
L 80.81899 37.29024 
" style="fill: none; stroke-dasharray: 6.66,2.88; stroke-dashoffset: 0; stroke: #268574; stroke-width: 1.8"/>
     <g>
      <use xlink:href="#mc6fa13928f" x="71.81899" y="37.29024" style="fill: #268574; stroke: #268574"/>
     </g>
    </g>
    <g id="text_23">
     <text style="font-size: 9px; font-family: 'DejaVu Sans'; text-anchor: start" x="88.01899" y="40.44024" transform="rotate(-0 88.01899 40.44024)">Student64 → I64 · GT</text>
    </g>
    <g id="line2d_36">
     <path d="M 202.034928 10.288834 
L 211.034928 10.288834 
L 220.034928 10.288834 
" style="fill: none; stroke-dasharray: 1.5,2.475; stroke-dashoffset: 0; stroke: #888888; stroke-width: 1.5"/>
    </g>
    <g id="text_24">
     <text style="font-size: 9px; font-family: 'DejaVu Sans'; text-anchor: start" x="227.234927" y="13.438834" transform="rotate(-0 227.234927 13.438834)">Initial student</text>
    </g>
    <g id="line2d_37">
     <path d="M 202.034928 23.789537 
L 211.034928 23.789537 
L 220.034928 23.789537 
" style="fill: none; stroke-dasharray: 5.55,2.4; stroke-dashoffset: 0; stroke: #333333; stroke-width: 1.5"/>
    </g>
    <g id="text_25">
     <text style="font-size: 9px; font-family: 'DejaVu Sans'; text-anchor: start" x="227.234927" y="26.939537" transform="rotate(-0 227.234927 26.939537)">Domain teacher</text>
    </g>
   </g>
  </g>
 </g>
 <defs>
  <clipPath id="p33ebeacbbc">
   <rect x="54.71899" y="50.702349" width="478.02827" height="240.496317"/>
  </clipPath>
 </defs>
</svg>
