<?xml version="1.0" encoding="utf-8" standalone="no"?>
<!DOCTYPE svg PUBLIC "-//W3C//DTD SVG 1.1//EN"
  "http://www.w3.org/Graphics/SVG/1.1/DTD/svg11.dtd">
<svg xmlns:xlink="http://www.w3.org/1999/xlink" width="396pt" height="178.56pt" viewBox="0 0 396 178.56" xmlns="http://www.w3.org/2000/svg" version="1.1">
 <metadata>
  <rdf:RDF xmlns:dc="http://purl.org/dc/elements/1.1/" xmlns:cc="http://creativecommons.org/ns#" xmlns:rdf="http://www.w3.org/1999/02/22-rdf-syntax-ns#">
   <cc:Work>
    <dc:type rdf:resource="http://purl.org/dc/dcmitype/StillImage"/>
    <dc:date>2026-09-04T15:53:41.301276</dc:date>
    <dc:format>image/svg+xml</dc:format>
    <dc:creator>
     <cc:Agent>
      <dc:title>Matplotlib v3.9.4, https://matplotlib.org/</dc:title>
     </cc:Agent>
    </dc:creator>
   </cc:Work>
  </rdf:RDF>
 </metadata>
 <defs>
  <style type="text/css">*{stroke-linejoin: round; stroke-linecap: butt}</style>
 </defs>
 <g id="figure_1">
  <g id="patch_1">
   <path d="M 0 178.56 
L 396 178.56 
L 396 0 
L 0 0 
z
" style="fill: #ffffff"/>
  </g>
  <g id="axes_1">
   <g id="patch_2">
    <path d="M 5.94 149.0976 
L 123.948 149.0976 
Q 128.7 149.0976 128.7 146.95488 
L 128.7 23.56992 
Q 128.7 21.4272 123.948 21.4272 
L 5.94 21.4272 
Q 1.188 21.4272 1.188 23.56992 
L 1.188 146.95488 
Q 1.188 149.0976 5.94 149.0976 
z
" clip-path="url(#p33f80de45f)" style="fill: #f7fafd; stroke: #d8e2eb; stroke-width: 0.7; stroke-linejoin: miter"/>
   </g>
   <g id="patch_3">
    <path d="M 138.996 149.0976 
L 257.004 149.0976 
Q 261.756 149.0976 261.756 146.95488 
L 261.756 23.56992 
Q 261.756 21.4272 257.004 21.4272 
L 138.996 21.4272 
Q 134.244 21.4272 134.244 23.56992 
L 134.244 146.95488 
Q 134.244 149.0976 138.996 149.0976 
z
" clip-path="url(#p33f80de45f)" style="fill: #f7fafd; stroke: #d8e2eb; stroke-width: 0.7; stroke-linejoin: miter"/>
   </g>
   <g id="patch_4">
    <path d="M 272.052 149.0976 
L 390.06 149.0976 
Q 394.812 149.0976 394.812 146.95488 
L 394.812 23.56992 
Q 394.812 21.4272 390.06 21.4272 
L 272.052 21.4272 
Q 267.3 21.4272 267.3 23.56992 
L 267.3 146.95488 
Q 267.3 149.0976 272.052 149.0976 
z
" clip-path="url(#p33f80de45f)" style="fill: #f7fafd; stroke: #d8e2eb; stroke-width: 0.7; stroke-linejoin: miter"/>
   </g>
   <g id="patch_5">
    <path d="M 57.816 78.5664 
L 63.536 78.5664 
L 63.536 73.56672 
L 57.816 73.56672 
z
" clip-path="url(#p33f80de45f)" style="fill: #d28b12"/>
   </g>
   <g id="patch_6">
    <path d="M 57.816 93.02976 
L 109.296 93.02976 
L 109.296 88.03008 
L 57.816 88.03008 
z
" clip-path="url(#p33f80de45f)" style="fill: #397fba"/>
   </g>
   <g id="patch_7">
    <path d="M 57.816 107.49312 
L 80.696 107.49312 
L 80.696 102.49344 
L 57.816 102.49344 
z
" clip-path="url(#p33f80de45f)" style="fill: #258d7e"/>
   </g>
   <g id="patch_8">
    <path d="M 57.816 121.95648 
L 80.696 121.95648 
L 80.696 116.9568 
L 57.816 116.9568 
z
" clip-path="url(#p33f80de45f)" style="fill: #c85f48"/>
   </g>
   <g id="patch_9">
    <path d="M 181.368 78.92352 
L 188.1 78.92352 
L 188.1 73.2096 
L 181.368 73.2096 
z
" clip-path="url(#p33f80de45f)" style="fill: #d28b12"/>
   </g>
   <g id="patch_10">
    <path d="M 189.684 78.92352 
L 196.416 78.92352 
L 196.416 73.2096 
L 189.684 73.2096 
z
" clip-path="url(#p33f80de45f)" style="fill: #d28b12"/>
   </g>
   <g id="patch_11">
    <path d="M 181.368 93.38688 
L 188.1 93.38688 
L 188.1 87.67296 
L 181.368 87.67296 
z
" clip-path="url(#p33f80de45f)" style="fill: #397fba"/>
   </g>
   <g id="patch_12">
    <path d="M 189.684 93.38688 
L 196.416 93.38688 
L 196.416 87.67296 
L 189.684 87.67296 
z
" clip-path="url(#p33f80de45f)" style="fill: #397fba"/>
   </g>
   <g id="patch_13">
    <path d="M 198 93.38688 
L 204.732 93.38688 
L 204.732 87.67296 
L 198 87.67296 
z
" clip-path="url(#p33f80de45f)" style="fill: #397fba"/>
   </g>
   <g id="patch_14">
    <path d="M 206.316 93.38688 
L 213.048 93.38688 
L 213.048 87.67296 
L 206.316 87.67296 
z
" clip-path="url(#p33f80de45f)" style="fill: #397fba"/>
   </g>
   <g id="patch_15">
    <path d="M 214.632 93.38688 
L 221.364 93.38688 
L 221.364 87.67296 
L 214.632 87.67296 
z
" clip-path="url(#p33f80de45f)" style="fill: #397fba"/>
   </g>
   <g id="patch_16">
    <path d="M 222.948 93.38688 
L 229.68 93.38688 
L 229.68 87.67296 
L 222.948 87.67296 
z
" clip-path="url(#p33f80de45f)" style="fill: #397fba"/>
   </g>
   <g id="patch_17">
    <path d="M 181.368 107.85024 
L 188.1 107.85024 
L 188.1 102.13632 
L 181.368 102.13632 
z
" clip-path="url(#p33f80de45f)" style="fill: #258d7e"/>
   </g>
   <g id="patch_18">
    <path d="M 189.684 107.85024 
L 196.416 107.85024 
L 196.416 102.13632 
L 189.684 102.13632 
z
" clip-path="url(#p33f80de45f)" style="fill: #258d7e"/>
   </g>
   <g id="patch_19">
    <path d="M 198 107.85024 
L 204.732 107.85024 
L 204.732 102.13632 
L 198 102.13632 
z
" clip-path="url(#p33f80de45f)" style="fill: #258d7e"/>
   </g>
   <g id="patch_20">
    <path d="M 206.316 107.85024 
L 213.048 107.85024 
L 213.048 102.13632 
L 206.316 102.13632 
z
" clip-path="url(#p33f80de45f)" style="fill: #258d7e"/>
   </g>
   <g id="patch_21">
    <path d="M 181.368 122.3136 
L 188.1 122.3136 
L 188.1 116.59968 
L 181.368 116.59968 
z
" clip-path="url(#p33f80de45f)" style="fill: #c85f48"/>
   </g>
   <g id="patch_22">
    <path d="M 189.684 122.3136 
L 196.416 122.3136 
L 196.416 116.59968 
L 189.684 116.59968 
z
" clip-path="url(#p33f80de45f)" style="fill: #c85f48"/>
   </g>
   <g id="patch_23">
    <path d="M 198 122.3136 
L 204.732 122.3136 
L 204.732 116.59968 
L 198 116.59968 
z
" clip-path="url(#p33f80de45f)" style="fill: #c85f48"/>
   </g>
   <g id="patch_24">
    <path d="M 206.316 122.3136 
L 213.048 122.3136 
L 213.048 116.59968 
L 206.316 116.59968 
z
" clip-path="url(#p33f80de45f)" style="fill: #c85f48"/>
   </g>
   <g id="text_1">
    <text style="fill: #193d56; font: 700 9px 'DejaVu Sans'; text-anchor: middle" x="198" y="10.875758" transform="rotate(-0 198 10.875758)">Spend more samples on less precise task updates</text>
   </g>
   <g id="text_2">
    <text style="fill: #193d56; font: 700 7.7px 'DejaVu Sans'; text-anchor: middle" x="64.944" y="33.521201" transform="rotate(-0 64.944 33.521201)">1  Measure variability</text>
   </g>
   <g id="text_3">
    <text style="fill: #193d56; font: 700 7.7px 'DejaVu Sans'; text-anchor: middle" x="198" y="33.551279" transform="rotate(-0 198 33.551279)">2  Allocate micro-batches</text>
   </g>
   <g id="text_4">
    <text style="fill: #193d56; font: 700 7.7px 'DejaVu Sans'; text-anchor: middle" x="331.056" y="33.521201" transform="rotate(-0 331.056 33.521201)">3  Keep task weights fixed</text>
   </g>
   <g id="text_5">
    <text style="fill: #193d56; font: 6.6px 'DejaVu Sans'; text-anchor: middle" x="64.944" y="48.246788" transform="rotate(-0 64.944 48.246788)">Ordinary dense-loss gradients</text>
   </g>
   <g id="text_6">
    <!-- Apply optimizer scaling $D$ -->
    <g style="fill: #667789" transform="translate(22.77 59.66844)">
     <text>
      <tspan style="font: 6.6px 'DejaVu Sans'" x="0 4.532043 8.737366 12.942688 14.783325 18.703979 20.809875 24.863159 29.068481 31.666077 33.506714 39.960266 41.800903 45.278381 49.354309 52.078064 54.18396 57.635559 61.278015 65.337769 67.178406 69.019043 73.217896 77.423218" y="-0.6875">Apply optimizer scaling </tspan>
      <tspan style="font: oblique 6.6px 'DejaVu Sans'" x="79.529114" y="-0.6875">D</tspan>
     </text>
    </g>
   </g>
   <g id="text_7">
    <text style="fill: #d28b12; font: 6.4px 'DejaVu Sans'; text-anchor: middle" x="35.64" y="77.83256" transform="rotate(-0 35.64 77.83256)">Math</text>
   </g>
   <g id="text_8">
    <text style="fill: #397fba; font: 6.4px 'DejaVu Sans'; text-anchor: middle" x="35.64" y="92.29592" transform="rotate(-0 35.64 92.29592)">Code</text>
   </g>
   <g id="text_9">
    <text style="fill: #258d7e; font: 6.4px 'DejaVu Sans'; text-anchor: middle" x="35.64" y="106.75928" transform="rotate(-0 35.64 106.75928)">IF</text>
   </g>
   <g id="text_10">
    <text style="fill: #c85f48; font: 6.4px 'DejaVu Sans'; text-anchor: middle" x="35.64" y="121.22264" transform="rotate(-0 35.64 121.22264)">Science</text>
   </g>
   <g id="text_11">
    <!-- Measured noise $e_i$ -->
    <g style="fill: #193d56" transform="translate(35.112 140.740868)">
     <text>
      <tspan style="font: 6.6px 'DejaVu Sans'" x="0 5.716003 9.791931 13.851685 17.303284 21.502136 24.225891 28.301819 32.507141 34.613037 38.81189 42.865173 44.705811 48.15741 52.233337" y="-0.6875">Measured noise </tspan>
      <tspan style="font: oblique 6.6px 'DejaVu Sans'" x="54.339233" y="-0.6875">e</tspan>
      <tspan style="font: oblique 4.62px 'DejaVu Sans'" x="58.415161" y="0.4609375">i</tspan>
     </text>
    </g>
   </g>
   <g id="text_12">
    <!-- $m_i \propto w_i\sqrt{e_i}$ -->
    <g style="fill: #193d56" transform="translate(172.9 51.860073)">
     <text>
      <tspan style="font: oblique 10px 'DejaVu Sans'" x="0 22.999512 40.592117" y="-0.9625000000000004 -0.9625000000000004 -0.78125">mwe</tspan>
      <tspan style="font: oblique 7px 'DejaVu Sans'" x="9.741211 31.178223 46.744461" y="0.6781249999999996 0.6781249999999996 0.859375">iii</tspan>
      <tspan style="font: 10px 'DejaVu Sans'" x="13.907715" y="-0.9625000000000004">∝</tspan>
      <tspan style="font: 5.609137px 'STIXSizeOneSym'" x="33.396484" y="-1.0875000000000004">√</tspan>
     </text>
     <rect x="39.342117" y="-10.75" width="10.870605" height="0.625"/>
    </g>
   </g>
   <g id="text_13">
    <text style="fill: #667789; font: 6.5px 'DejaVu Sans'; text-anchor: middle" x="198" y="63.753914" transform="rotate(-0 198 63.753914)">Example: 16 micro-batches</text>
   </g>
   <g id="text_14">
    <text style="fill: #d28b12; font: 6.4px 'DejaVu Sans'; text-anchor: middle" x="158.4" y="77.83256" transform="rotate(-0 158.4 77.83256)">Math</text>
   </g>
   <g id="text_15">
    <text style="fill: #d28b12; font: 6.4px 'DejaVu Sans'; text-anchor: middle" x="246.312" y="77.83256" transform="rotate(-0 246.312 77.83256)">2</text>
   </g>
   <g id="text_16">
    <text style="fill: #397fba; font: 6.4px 'DejaVu Sans'; text-anchor: middle" x="158.4" y="92.29592" transform="rotate(-0 158.4 92.29592)">Code</text>
   </g>
   <g id="text_17">
    <text style="fill: #397fba; font: 6.4px 'DejaVu Sans'; text-anchor: middle" x="246.312" y="92.29592" transform="rotate(-0 246.312 92.29592)">6</text>
   </g>
   <g id="text_18">
    <text style="fill: #258d7e; font: 6.4px 'DejaVu Sans'; text-anchor: middle" x="158.4" y="106.75928" transform="rotate(-0 158.4 106.75928)">IF</text>
   </g>
   <g id="text_19">
    <text style="fill: #258d7e; font: 6.4px 'DejaVu Sans'; text-anchor: middle" x="246.312" y="106.75928" transform="rotate(-0 246.312 106.75928)">4</text>
   </g>
   <g id="text_20">
    <text style="fill: #c85f48; font: 6.4px 'DejaVu Sans'; text-anchor: middle" x="158.4" y="121.22264" transform="rotate(-0 158.4 121.22264)">Science</text>
   </g>
   <g id="text_21">
    <text style="fill: #c85f48; font: 6.4px 'DejaVu Sans'; text-anchor: middle" x="246.312" y="121.22264" transform="rotate(-0 246.312 121.22264)">4</text>
   </g>
   <g id="text_22">
    <text style="fill: #193d56; font: 6.6px 'DejaVu Sans'; text-anchor: middle" x="198" y="140.740868" transform="rotate(-0 198 140.740868)">More noise, more samples</text>
   </g>
   <g id="text_23">
    <text style="fill: #193d56; font: 6.7px 'DejaVu Sans'; text-anchor: middle" x="331.056" y="51.488461" transform="rotate(-0 331.056 51.488461)">Average within each task</text>
   </g>
   <g id="text_24">
    <!-- $A=\frac{1}{4}\bar g_{\rm Math}+\frac{1}{4}\bar g_{\rm Code}$ -->
    <g style="fill: #193d56" transform="translate(292.0835 68.62576)">
     <text>
      <tspan style="font: oblique 8.5px 'DejaVu Sans'" x="0 21.096851 56.990454" y="-0.5234375">Agg</tspan>
      <tspan style="font: 8.5px 'DejaVu Sans'" x="7.470703 26.651538 43.364307 62.545142" y="-0.5234375 -0.5703125 -0.5234375 -0.5703125">=̄+̄</tspan>
      <tspan style="font: 5.95px 'DejaVu Sans'" x="16.248779 16.248779 26.578491 31.712109 35.358228 37.691162 52.142383 52.142383 62.472095 66.626636 70.266943 74.043799" y="-4.40625 2.84375 0.953125 0.953125 0.953125 0.953125 -4.40625 2.84375 0.953125 0.953125 0.953125 0.953125">14Math14Code</tspan>
     </text>
     <rect x="16.248779" y="-3.28125" width="3.785571" height="0.53125"/>
     <rect x="52.142383" y="-3.28125" width="3.785571" height="0.53125"/>
    </g>
   </g>
   <g id="text_25">
    <!-- $+\frac{1}{4}\bar g_{\rm IF}+\frac{1}{4}\bar g_{\rm Science}$ -->
    <g style="fill: #193d56" transform="translate(297.566 86.83888)">
     <text>
      <tspan style="font: 8.5px 'DejaVu Sans'" x="0 17.524829 24.531079 43.711914" y="-0.5234375 -0.5703125 -0.5234375 -0.5703125">+̄+̄</tspan>
      <tspan style="font: 5.95px 'DejaVu Sans'" x="7.12207 7.12207 17.451782 19.206567 33.309155 33.309155 43.638867 47.415723 50.687061 52.340161 56.000806 59.771851 63.043188" y="-4.40625 2.84375 0.953125 0.953125 -4.40625 2.84375 0.953125 0.953125 0.953125 0.953125 0.953125 0.953125 0.953125">14IF14Science</tspan>
      <tspan style="font: oblique 8.5px 'DejaVu Sans'" x="11.970142 38.157227" y="-0.5234375">gg</tspan>
     </text>
     <rect x="7.12207" y="-3.28125" width="3.785571" height="0.53125"/>
     <rect x="33.309155" y="-3.28125" width="3.785571" height="0.53125"/>
    </g>
   </g>
   <g id="text_26">
    <text style="fill: #667789; font: 6.6px 'DejaVu Sans'; text-anchor: middle" x="331.056" y="110.385667" transform="rotate(-0 331.056 110.385667)">Different sample counts</text>
   </g>
   <g id="text_27">
    <text style="fill: #667789; font: 6.6px 'DejaVu Sans'; text-anchor: middle" x="331.056" y="120.920707" transform="rotate(-0 331.056 120.920707)">Same intended task balance</text>
   </g>
   <g id="text_28">
    <text style="fill: #193d56; font: 6.6px 'DejaVu Sans'; text-anchor: middle" x="331.056" y="140.740868" transform="rotate(-0 331.056 140.740868)">Then take the AdamW step</text>
   </g>
   <g id="patch_25">
    <path d="M 129.514236 89.28 
Q 131.276186 89.28 132.143708 89.28 
" style="fill: none; stroke: #193d56; stroke-width: 0.8; stroke-linecap: round"/>
    <path d="M 129.343708 87.88 
L 132.143708 89.28 
L 129.343708 90.68 
z
" style="fill: #193d56; stroke: #193d56; stroke-width: 0.8; stroke-linecap: round"/>
   </g>
   <g id="patch_26">
    <path d="M 262.570236 89.28 
Q 264.332186 89.28 265.199708 89.28 
" style="fill: none; stroke: #193d56; stroke-width: 0.8; stroke-linecap: round"/>
    <path d="M 262.399708 87.88 
L 265.199708 89.28 
L 262.399708 90.68 
z
" style="fill: #193d56; stroke: #193d56; stroke-width: 0.8; stroke-linecap: round"/>
   </g>
   <g id="text_29">
    <text style="fill: #397fba; font: 7px 'DejaVu Sans'; text-anchor: middle" x="198" y="160.314282" transform="rotate(-0 198 160.314282)">Reuse this step's statistics to allocate the next step</text>
   </g>
   <g id="text_30">
    <text style="fill: #667789; font: 6.8px 'DejaVu Sans'; text-anchor: middle" x="198" y="171.686935" transform="rotate(-0 198 171.686935)">Cost-aware mode also uses measured time per task</text>
   </g>
  </g>
 </g>
 <defs>
  <clipPath id="p33f80de45f">
   <rect x="0" y="0" width="396" height="178.56"/>
  </clipPath>
 </defs>
</svg>
